<?xml version="1.0" encoding="utf-8"?>
<svg viewBox="0 0 475.643 476.996" xmlns="http://www.w3.org/2000/svg" xmlns:bx="https://boxy-svg.com">
  <path style="fill:#677070;" d="M 458.631 474.585 L 15.554 474.585 C 6.85 474.585 -0.2 467.535 -0.2 458.831 L -0.2 15.754 C -0.2 7.058 6.85 0 15.554 0 L 458.631 0 C 467.327 0 474.385 7.058 474.385 15.754 L 474.385 458.831 C 474.385 467.535 467.327 474.585 458.631 474.585 Z M 31.308 443.077 L 442.877 443.077 L 442.877 31.508 L 31.308 31.508 L 31.308 443.077 Z" bx:origin="0.5 0.531363"/>
  <path style="fill:#2D3333;" d="M 458.831 15.1 L 15.754 15.1 C 7.05 15.1 0 22.15 0 30.854 L 0 443.731 C 0 452.435 7.05 459.485 15.754 459.485 L 458.831 459.485 C 467.527 459.485 474.585 452.435 474.585 443.731 L 474.585 30.854 C 474.585 22.15 467.527 15.1 458.831 15.1 Z M 443.077 46.608 L 443.077 427.977 L 443.077 458.177 L 31.508 458.177 L 31.508 427.977 L 31.508 46.608 L 31.508 16.408 L 443.077 16.408 L 443.077 46.608 Z" bx:origin="0.5 0.499515"/>
</svg>