<?xml version="1.0" encoding="utf-8"?>
<svg viewBox="0 0 475.643 476.996" xmlns="http://www.w3.org/2000/svg" xmlns:bx="https://boxy-svg.com">
  <path style="fill:#677070;" d="M 458.631 474.585 L 15.554 474.585 C 6.85 474.585 -0.2 467.535 -0.2 458.831 L -0.2 15.754 C -0.2 7.058 6.85 0 15.554 0 L 458.631 0 C 467.327 0 474.385 7.058 474.385 15.754 L 474.385 458.831 C 474.385 467.535 467.327 474.585 458.631 474.585 Z M 31.308 443.077 L 442.877 443.077 L 442.877 31.508 L 31.308 31.508 L 31.308 443.077 Z" bx:origin="0.5 0.531363"/>
  <path style="fill:#2D3333;" d="M 458.831 15.1 L 15.754 15.1 C 7.05 15.1 0 22.15 0 30.854 L 0 443.731 C 0 452.435 7.05 459.485 15.754 459.485 L 458.831 459.485 C 467.527 459.485 474.585 452.435 474.585 443.731 L 474.585 30.854 C 474.585 22.15 467.527 15.1 458.831 15.1 Z M 443.077 46.608 L 443.077 427.977 L 443.077 458.177 L 31.508 458.177 L 31.508 427.977 L 31.508 46.608 L 31.508 16.408 L 443.077 16.408 L 443.077 46.608 Z" bx:origin="0.5 0.499515"/>
  <g transform="matrix(1, 0, 0, 1, 175.113831, 225.642715)" bx:origin="0.501597 0.461001">
    <g transform="matrix(4.166667, 0, 0, 4.166667, -146.553879, -187.149292)" bx:origin="0.557077 -0.478821">
      <path d="M80,71.2V74c0,3.3-2.7,6-6,6H26c-3.3,0-6-2.7-6-6v-2.8c0-7.3,8.5-11.7,16.5-15.2c0.3-0.1,0.5-0.2,0.8-0.4 c0.6-0.3,1.3-0.3,1.9,0.1C42.4,57.8,46.1,59,50,59c3.9,0,7.6-1.2,10.8-3.2c0.6-0.4,1.3-0.4,1.9-0.1c0.3,0.1,0.5,0.2,0.8,0.4 C71.5,59.5,80,63.9,80,71.2z" fill="{}"/>
    </g>
    <g transform="matrix(4.166667, 0, 0, 4.166667, -146.553879, -187.149292)" bx:origin="0.61492 0.715167">
      <ellipse cx="50" cy="36.5" rx="14.9" ry="16.5" fill="{}"/>
    </g>
  </g>
</svg>