<?xml version="1.0" encoding="utf-8"?>
<svg viewBox="0 0 475.643 476.996" xmlns="http://www.w3.org/2000/svg" xmlns:bx="https://boxy-svg.com">
  <g transform="matrix(1, 0, 0, 1, 175.113831, 225.642715)" bx:origin="0.501597 0.461001">
    <g transform="matrix(4.166667, 0, 0, 4.166667, -146.553879, -187.149292)" bx:origin="0.557077 -0.478821">
      <path d="M80,71.2V74c0,3.3-2.7,6-6,6H26c-3.3,0-6-2.7-6-6v-2.8c0-7.3,8.5-11.7,16.5-15.2c0.3-0.1,0.5-0.2,0.8-0.4 c0.6-0.3,1.3-0.3,1.9,0.1C42.4,57.8,46.1,59,50,59c3.9,0,7.6-1.2,10.8-3.2c0.6-0.4,1.3-0.4,1.9-0.1c0.3,0.1,0.5,0.2,0.8,0.4 C71.5,59.5,80,63.9,80,71.2z" fill="{}"/>
    </g>
    <g transform="matrix(4.166667, 0, 0, 4.166667, -146.553879, -187.149292)" bx:origin="0.61492 0.715167">
      <ellipse cx="50" cy="36.5" rx="14.9" ry="16.5" fill="{}"/>
    </g>c
  </g>
</svg>